<?xml version="1.0" standalone="no"?>
<!DOCTYPE svg PUBLIC "-//W3C//DTD SVG 20010904//EN"
 "http://www.w3.org/TR/2001/REC-SVG-20010904/DTD/svg10.dtd">
<svg version="1.0" xmlns="http://www.w3.org/2000/svg"
 width="1024.000000pt" height="1024.000000pt" viewBox="0 0 1024.000000 1024.000000"
 preserveAspectRatio="xMidYMid meet">

<g transform="translate(0.000000,1024.000000) scale(0.100000,-0.100000)"
fill="#000000" stroke="none">
<path d="M1822 8079 c-262 -38 -481 -224 -570 -484 l-27 -80 0 -2370 c0 -2228
1 -2374 18 -2435 62 -231 235 -417 462 -497 l80 -28 3303 -3 c3697 -2 3373 -9
3540 73 168 83 291 231 360 430 l27 80 0 2375 0 2375 -31 88 c-44 122 -87 189
-179 282 -86 87 -189 147 -310 182 -57 17 -247 18 -3335 19 -1917 1 -3301 -2
-3338 -7z m6681 -286 c84 -40 165 -115 205 -192 66 -122 62 44 62 -2468 0
-1628 -3 -2297 -11 -2335 -26 -126 -118 -252 -227 -311 -112 -61 127 -57
-3409 -57 -2321 0 -3247 3 -3285 11 -184 38 -327 191 -357 379 -15 90 -15
4540 0 4630 27 169 146 309 309 361 52 17 223 18 3350 16 l3295 -2 68 -32z"/>
<path d="M5370 7111 c-164 -5 -199 -9 -221 -24 -72 -48 -64 -166 14 -209 13
-7 80 -15 161 -18 l139 -5 -154 -140 c-246 -224 -1171 -1080 -1202 -1113 l-28
-30 -47 19 c-26 11 -130 51 -232 90 -102 39 -226 89 -277 110 -96 41 -133 46
-170 26 -12 -7 -205 -179 -430 -383 -224 -204 -462 -419 -529 -478 -66 -58
-126 -117 -132 -131 -40 -88 37 -183 136 -168 35 6 46 15 546 467 165 149 344
311 398 359 l98 89 217 -90 c439 -182 451 -186 500 -159 12 7 91 78 175 158
133 127 1010 933 1239 1140 l82 74 -6 -55 c-4 -30 -9 -98 -13 -151 l-7 -96 36
-39 c32 -36 40 -39 87 -39 46 0 55 4 84 35 l32 35 23 260 c37 403 36 375 9
415 -42 62 -60 64 -528 51z"/>
<path d="M6631 6142 c-19 -9 -44 -30 -55 -45 -20 -28 -21 -41 -24 -492 l-3
-463 -112 -8 c-109 -7 -113 -8 -144 -39 -26 -26 -33 -41 -33 -73 0 -103 41
-132 188 -132 l102 0 0 -129 0 -129 -116 -4 -116 -3 -29 -33 c-24 -27 -29 -41
-29 -83 0 -45 4 -55 34 -85 l34 -34 111 0 111 0 0 -147 c0 -82 5 -165 10 -185
16 -56 60 -88 122 -88 44 0 54 4 84 34 l34 34 0 176 0 175 286 3 286 3 29 33
c23 26 29 41 29 80 0 27 -7 57 -16 70 -34 49 -54 52 -344 52 l-270 0 0 129 0
129 303 5 c247 3 313 7 362 21 197 57 365 215 432 408 31 88 42 244 24 340
-34 176 -168 347 -332 426 -136 66 -188 72 -581 72 -307 0 -347 -2 -377 -18z
m832 -260 c151 -61 248 -244 218 -410 -24 -131 -111 -245 -229 -300 l-57 -27
-297 -3 -298 -3 0 386 0 386 303 -3 c289 -3 305 -4 360 -26z"/>
<path d="M5173 5799 c-17 -5 -43 -23 -57 -40 l-26 -31 0 -1179 0 -1179 -165 0
-165 0 0 815 c0 881 2 852 -52 889 -33 23 -514 24 -558 1 -63 -32 -60 6 -60
-890 l0 -815 -165 0 -165 0 0 580 c0 639 1 623 -61 655 -25 14 -69 16 -285 13
l-256 -3 -34 -37 -34 -38 0 -585 0 -585 -165 0 -165 0 0 280 c0 309 -3 325
-60 355 -24 12 -75 15 -277 15 -267 0 -279 -2 -317 -53 -20 -27 -21 -42 -24
-314 l-2 -286 -36 -31 c-64 -56 -55 -151 19 -196 31 -20 65 -20 1940 -20 2083
0 1939 -4 1986 56 26 33 28 95 4 135 -23 39 -79 59 -163 59 l-69 0 -3 1173
c-3 1101 -4 1175 -21 1200 -39 59 -50 62 -302 64 -126 1 -244 -2 -262 -8z
m337 -1257 c0 -561 3 -1053 6 -1095 l7 -77 -97 0 -96 0 0 1095 0 1095 90 0 90
0 0 -1018z m-1000 -149 c0 -252 3 -585 7 -740 l6 -283 -96 0 -96 0 3 73 c2 39
4 372 5 740 l1 667 85 0 85 0 0 -457z m-990 -523 l0 -500 -90 0 -90 0 0 500 0
500 90 0 90 0 0 -500z m-1000 -295 l0 -205 -95 0 -95 0 0 205 0 205 95 0 95 0
0 -205z"/>
</g>
</svg>
