<svg version="1.0" xmlns="http://www.w3.org/2000/svg" width="1024.000000pt" height="1024.000000pt" viewBox="0 0 1024.000000 1024.000000" preserveAspectRatio="xMidYMid meet">
            
            
            
            
            
            

<g transform="translate(0.000000,1024.000000) scale(0.100000,-0.100000)" fill="#000000" stroke="none">
<path d="M1845 8253 c-338 -47 -581 -281 -634 -613 -7 -44 -11 -813 -11 -2405&#10;1 -1927 3 -2353 14 -2415 29 -158 93 -280 205 -390 108 -106 230 -166 390&#10;-190 44 -7 1176 -9 3351 -8 l3285 3 71 21 c240 71 412 236 492 471 l27 78 3&#10;2395 c3 2656 7 2487 -63 2637 -97 211 -262 346 -485 400 -71 17 -242 18 -3345&#10;19 -1798 1 -3283 -1 -3300 -3z m6573 -273 c136 -22 251 -109 314 -237 l33 -68&#10;0 -2430 0 -2430 -39 -77 c-57 -116 -156 -196 -275 -224 -86 -21 -6605 -20&#10;-6672 0 -152 46 -255 151 -294 301 -13 52 -15 332 -15 2431 0 2334 0 2373 20&#10;2435 46 151 177 268 332 298 64 13 6518 13 6596 1z" class="" style="stroke: rgb(255, 255, 255); fill: rgb(255, 255, 255);"/>
<path d="M5201 7247 c-18 -7 -44 -25 -57 -41 -43 -49 -26 -157 29 -188 13 -8&#10;75 -15 156 -18 l135 -5 -250 -224 c-255 -230 -299 -271 -439 -402 -113 -106&#10;-291 -268 -498 -453 l-178 -159 -97 33 c-243 81 -452 156 -510 182 -97 43&#10;-150 34 -205 -32 -29 -34 -257 -242 -527 -480 -96 -85 -227 -202 -290 -260&#10;-63 -58 -137 -123 -163 -145 -55 -45 -77 -81 -77 -124 0 -78 53 -125 132 -118&#10;46 4 80 27 194 132 83 77 851 763 863 771 13 10 70 -10 296 -100 154 -62 294&#10;-120 312 -129 41 -22 112 -22 143 0 14 9 75 62 135 118 61 56 175 159 255 230&#10;148 131 326 293 364 331 12 11 109 99 216 196 329 295 423 379 469 422 l44 41&#10;-6 -55 c-19 -170 -19 -234 1 -266 42 -66 134 -78 192 -24 34 32 33 23 65 379&#10;24 274 25 285 8 319 -10 20 -31 45 -46 56 -27 20 -43 21 -330 23 -221 1 -311&#10;-1 -336 -10z" class="" style="stroke: rgb(255, 255, 255); fill: rgb(255, 255, 255);"/>
<path d="M7034 6476 c-33 -33 -34 -37 -34 -108 l0 -74 -77 -18 c-313 -74 -524&#10;-363 -473 -646 32 -180 163 -335 354 -419 54 -25 79 -33 176 -61 l25 -7 3&#10;-330 2 -330 -47 13 c-157 42 -228 96 -267 203 -46 130 -167 161 -256 66 -21&#10;-23 -25 -36 -25 -88 1 -193 220 -396 480 -446 117 -23 105 -11 105 -102 0&#10;-126 34 -173 125 -173 96 0 135 47 144 173 l6 75 69 13 c169 31 281 87 391&#10;198 122 122 165 226 165 400 0 266 -223 478 -576 545 l-61 12 -6 216 c-4 120&#10;-7 264 -7 321 l0 104 33 -6 c62 -10 146 -48 186 -85 24 -21 57 -68 79 -111 45&#10;-91 74 -115 140 -114 188 3 191 201 7 389 -85 85 -210 152 -347 186 l-88 21 0&#10;64 c0 111 -37 153 -133 153 -54 0 -62 -3 -93 -34z m-34 -619 c0 -85 3 -215 7&#10;-290 5 -105 3 -137 -6 -137 -27 0 -168 73 -199 103 -141 135 -79 381 115 457&#10;87 34 83 41 83 -133z m345 -778 c166 -40 261 -130 272 -256 13 -144 -103 -286&#10;-274 -338 -91 -28 -83 -56 -83 301 0 296 1 315 18 310 9 -3 40 -11 67 -17z" class="" style="fill: rgb(255, 255, 255);"/>
<path d="M5154 5961 c-67 -41 -64 26 -64 -1271 l0 -1170 -158 0 -159 0 -6 278&#10;c-4 152 -7 519 -7 815 0 519 -1 539 -20 577 -34 67 -48 70 -315 70 -267 0&#10;-281 -3 -315 -70 -20 -38 -20 -58 -20 -855 l0 -815 -165 0 -165 0 0 578 c0&#10;637 2 619 -63 666 -27 20 -41 21 -275 21 -239 0 -248 -1 -278 -22 -60 -43 -59&#10;-33 -59 -665 l0 -578 -162 0 -163 0 0 273 c-1 409 10 397 -336 397 -224 0&#10;-232 -1 -265 -23 -61 -41 -63 -52 -67 -364 -3 -224 -7 -283 -17 -283 -7 0 -27&#10;-16 -44 -35 -24 -27 -31 -45 -31 -76 0 -48 20 -90 54 -113 23 -15 180 -16&#10;1959 -16 l1934 0 27 21 c55 43 68 121 29 173 -27 37 -56 46 -148 46 l-85 0 0&#10;1183 c0 1155 -1 1183 -20 1214 -36 60 -53 63 -322 63 -221 0 -246 -2 -274 -19z&#10;m366 -1331 l0 -1110 -95 0 -95 0 0 1110 0 1110 95 0 95 0 0 -1110z m-999 -345&#10;c0 -396 2 -730 5 -742 4 -23 2 -23 -96 -23 l-100 0 0 423 c0 232 3 566 7 742&#10;l6 320 89 0 88 0 1 -720z m-1001 -255 l0 -510 -95 0 -95 0 0 510 0 510 95 0&#10;95 0 0 -510z m-1000 -302 l0 -203 -90 0 -90 0 0 203 0 202 90 0 90 0 0 -202z" class="" style="fill: rgb(255, 255, 255);"/>
</g>
</svg>